<svg width="170" height="28" viewBox="0 0 104 18" fill="none" xmlns="http://www.w3.org/2000/svg">
<path d="M6.2775 17.4C5.0375 17.4 3.8175 17.0467 2.6175 16.34L0.917497 17.2H0.477497V12.06H0.917497L2.6375 15.78C3.74416 16.5667 5.01083 16.96 6.4375 16.96C7.61083 16.96 8.5775 16.6533 9.3375 16.04C10.1108 15.4133 10.4975 14.54 10.4975 13.42C10.4975 12.6067 10.2508 11.9667 9.7575 11.5C9.26416 11.02 8.46416 10.64 7.3575 10.36L4.0375 9.5C2.8775 9.19333 2.00416 8.67333 1.4175 7.94C0.83083 7.19333 0.537497 6.31333 0.537497 5.3C0.537497 4.38 0.717497 3.56667 1.0775 2.86C1.45083 2.14 1.99083 1.58667 2.6975 1.2C3.40416 0.799999 4.24416 0.599999 5.2175 0.599999C6.43083 0.599999 7.5175 0.806666 8.4775 1.22L9.9375 0.599999H10.3775V4.68H9.9375L8.4975 1.76C7.4975 1.28 6.41083 1.04 5.2375 1.04C4.0775 1.04 3.16416 1.34 2.4975 1.94C1.83083 2.52667 1.4975 3.30667 1.4975 4.28C1.4975 5 1.73083 5.56667 2.1975 5.98C2.6775 6.39333 3.3775 6.72 4.2975 6.96L7.8775 7.9C9.0375 8.19333 9.8975 8.7 10.4575 9.42C11.0308 10.1267 11.3175 11.2067 11.3175 12.66C11.3175 14.14 10.8575 15.3 9.9375 16.14C9.03083 16.98 7.81083 17.4 6.2775 17.4ZM14.0578 17V16.58L15.8978 16.28V1.72L14.0578 1.44V1H26.0978V5.58H25.5578L24.0178 1.5H18.0978V8.7H20.6978L21.8778 5.8H22.3978V12.12H21.8778L20.6778 9.18H18.0978V16.52H24.3778L26.0178 12.12H26.5378V17H14.0578ZM37.5919 17.2L31.6319 1.72V15.78L33.5519 16.58V17H29.2719V16.58L31.1519 15.78V1.72L29.3119 1.44V1H33.7319L38.7519 13.84L43.8719 1H47.9119V1.44L46.0719 1.72V16.28L47.9119 16.58V17H42.0319V16.58L43.8719 16.28V2.32L37.9519 17.2H37.5919ZM50.3062 17V16.58L52.1462 16.28V1.72L50.3062 1.44V1H56.1862V1.44L54.3462 1.72V16.28L56.1862 16.58V17H50.3062ZM61.8467 17V16.58L63.6867 16.28V1.5H60.3867L58.8667 5.46H58.2867V1H71.3067V5.46H70.7067L69.2067 1.5H65.8867V16.28L67.7267 16.58V17H61.8467ZM73.3906 17V16.58L75.2306 16.28V1.72L73.3906 1.44V1H85.4306V5.58H84.8906L83.3506 1.5H77.4306V8.7H80.0306L81.2106 5.8H81.7306V12.12H81.2106L80.0106 9.18H77.4306V16.52H83.7106L85.3506 12.12H85.8706V17H73.3906ZM87.8447 17V16.58L89.8247 15.46L94.4047 9.34L89.3447 1.72L87.6447 1.44V1H93.7047V1.44L92.1247 1.68L96.0047 7.56L99.8647 2.4L97.4847 1.44V1H102.265V1.44L100.365 2.5L96.2847 7.96L101.825 16.3L103.545 16.58V17H97.4647V16.58L99.0447 16.32L94.6847 9.76L90.2647 15.64L92.6247 16.58V17H87.8447Z" fill="white"/>
</svg>
